<svg width="174" height="86" viewBox="0 0 174 86" fill="none" xmlns="http://www.w3.org/2000/svg">
<path d="M6.24538 69.0853H10.9498L8.58909 56.3647L6.24538 69.0853ZM0.674805 78.9867L6.68695 50.8281H10.4743L16.4864 78.9867H12.75L11.4593 71.8876H5.73587L4.39418 78.9867H0.674805Z" fill="#00012F"/>
<path d="M25.4197 76.3373C25.7367 76.3373 26.0084 76.2807 26.2349 76.1674C26.4613 76.0542 26.6482 75.8674 26.7953 75.607C26.9425 75.3466 27.0614 75.0805 27.152 74.8088C27.2426 74.537 27.3049 74.1747 27.3388 73.7218C27.3841 73.2576 27.4124 72.8387 27.4237 72.465C27.4351 72.0914 27.4407 71.6159 27.4407 71.0384V66.1642C27.4407 65.5981 27.4237 65.1112 27.3898 64.7036C27.3671 64.296 27.3105 63.8827 27.2199 63.4638C27.1407 63.0336 27.0218 62.6882 26.8633 62.4278C26.7161 62.1561 26.5066 61.941 26.2349 61.7824C25.9745 61.6126 25.6575 61.5277 25.2838 61.5277C24.4346 61.5277 23.5911 61.873 22.7533 62.5637V75.4541C23.5685 76.0429 24.4573 76.3373 25.4197 76.3373ZM19.0339 85.6102V58.8783H22.7533V60.4917C23.8176 59.2349 25.0913 58.6065 26.5746 58.6065C27.2426 58.6065 27.837 58.7368 28.3578 58.9972C28.89 59.2463 29.3146 59.5972 29.6316 60.0501C29.9486 60.4917 30.2147 60.9672 30.4298 61.4767C30.6563 61.9749 30.8148 62.5354 30.9053 63.1581C31.0072 63.7695 31.0752 64.3017 31.1091 64.7546C31.1431 65.2074 31.1601 65.6773 31.1601 66.1642V71.0214C31.1601 76.5241 29.4957 79.2754 26.167 79.2754C24.9668 79.2754 23.8289 78.681 22.7533 77.4921V85.6102H19.0339Z" fill="#00012F"/>
<path d="M40.9426 76.3373C41.2596 76.3373 41.5313 76.2807 41.7578 76.1674C41.9842 76.0542 42.171 75.8674 42.3182 75.607C42.4654 75.3466 42.5843 75.0805 42.6749 74.8088C42.7654 74.537 42.8277 74.1747 42.8617 73.7218C42.907 73.2576 42.9353 72.8387 42.9466 72.465C42.9579 72.0914 42.9636 71.6159 42.9636 71.0384V66.1642C42.9636 65.5981 42.9466 65.1112 42.9126 64.7036C42.89 64.296 42.8334 63.8827 42.7428 63.4638C42.6635 63.0336 42.5447 62.6882 42.3862 62.4278C42.239 62.1561 42.0295 61.941 41.7578 61.7824C41.4974 61.6126 41.1803 61.5277 40.8067 61.5277C39.9575 61.5277 39.114 61.873 38.2762 62.5637V75.4541C39.0914 76.0429 39.9802 76.3373 40.9426 76.3373ZM34.5568 85.6102V58.8783H38.2762V60.4917C39.3405 59.2349 40.6142 58.6065 42.0974 58.6065C42.7654 58.6065 43.3599 58.7368 43.8807 58.9972C44.4128 59.2463 44.8374 59.5972 45.1545 60.0501C45.4715 60.4917 45.7376 60.9672 45.9527 61.4767C46.1791 61.9749 46.3376 62.5354 46.4282 63.1581C46.5301 63.7695 46.598 64.3017 46.632 64.7546C46.666 65.2074 46.683 65.6773 46.683 66.1642V71.0214C46.683 76.5241 45.0186 79.2754 41.6898 79.2754C40.4897 79.2754 39.3518 78.681 38.2762 77.4921V85.6102H34.5568Z" fill="#00012F"/>
<path d="M74.2301 78.9867L74.7566 50.8281H78.5949L83.571 73.6709L88.5811 50.8281H92.4194L92.9459 78.9867H89.77L89.4643 58.5216L84.6919 78.9867H82.4841L77.7457 58.5216L77.44 78.9867H74.2301Z" fill="#00012F"/>
<path d="M102.032 76.0485C102.508 76.0485 102.972 75.8617 103.425 75.4881C103.889 75.1145 104.234 74.7465 104.461 74.3842V68.6947C103.159 69.4307 102.298 69.9741 101.879 70.3251C100.792 71.2083 100.249 72.2556 100.249 73.4671C100.249 74.2823 100.402 74.9163 100.707 75.3692C101.013 75.8221 101.455 76.0485 102.032 76.0485ZM100.554 79.2754C99.4109 79.2754 98.4485 78.8055 97.6673 77.8658C96.8974 76.9147 96.5124 75.8278 96.5124 74.605C96.5124 73.6539 96.6653 72.7934 96.971 72.0235C97.288 71.2422 97.622 70.6138 97.973 70.1383C98.324 69.6628 98.9297 69.1702 99.7902 68.6607C100.662 68.1399 101.336 67.7719 101.811 67.5568C102.287 67.3417 103.119 66.9907 104.308 66.5038C104.376 66.4699 104.427 66.4472 104.461 66.4359V64.9923C104.461 63.6903 104.325 62.7675 104.053 62.224C103.793 61.6692 103.255 61.3918 102.44 61.3918C101.036 61.3918 100.334 62.3429 100.334 64.245V65.2471L96.6483 65.1112C96.6483 64.9074 96.6596 64.6583 96.6822 64.3639C96.7955 62.3599 97.3559 60.8993 98.3636 59.9822C99.3713 59.0651 100.815 58.6065 102.694 58.6065C104.63 58.6065 106.029 59.1387 106.889 60.203C107.75 61.256 108.18 62.8467 108.18 64.9753V74.1634C108.18 75.6806 108.293 77.2883 108.52 78.9867H105.123C104.885 77.8658 104.721 76.8751 104.63 76.0146C104.347 76.9204 103.861 77.6903 103.17 78.3243C102.491 78.9584 101.619 79.2754 100.554 79.2754Z" fill="#00012F"/>
<path d="M112.001 55.9062V52H115.738V55.9062H112.001ZM112.001 78.9867V58.8783H115.721V78.9867H112.001Z" fill="#00012F"/>
<path d="M120.051 78.9867V50.8281H123.788V78.9867H120.051Z" fill="#00012F"/>
<path d="M50.5898 78.9867V50.8281H54.4451V78.9867H50.5898Z" fill="#00012F" fill-opacity="0.6"/>
<path d="M58.7079 78.9867V58.8783H62.4273V60.8653C64.0124 59.3595 65.6485 58.6065 67.3355 58.6065C67.9016 58.6065 68.3885 58.7254 68.7961 58.9632C69.215 59.201 69.532 59.5293 69.7472 59.9482C69.9623 60.3558 70.1151 60.7861 70.2057 61.239C70.2963 61.6919 70.3416 62.1844 70.3416 62.7165V78.9867H66.6222V63.8035C66.6222 63.0336 66.509 62.4618 66.2825 62.0882C66.0561 61.7145 65.6372 61.5277 65.0258 61.5277C64.2785 61.5277 63.4123 61.941 62.4273 62.7675V78.9867H58.7079Z" fill="#00012F" fill-opacity="0.6"/>
<path d="M165.459 0.533217L132.225 0.533203C127.614 0.533203 123.788 4.37499 123.788 9.00482V32.942C123.788 37.6704 127.614 41.4137 132.225 41.4137H133.304V50.8281L145.568 41.4137L165.459 41.4137C170.168 41.4137 173.896 37.5719 173.896 32.9421V9.00483C173.896 4.375 170.168 0.533217 165.459 0.533217Z" fill="#EF3671"/>
<g opacity="0.99">
<path opacity="0.99" d="M133.778 33.9272C133.68 33.9272 133.582 33.9272 133.484 33.8287L143.785 25.2586L147.513 28.1153C148.396 28.8049 149.573 28.8049 150.456 28.1153L154.184 25.2586L164.485 33.8287C164.387 33.8287 164.289 33.9272 164.191 33.9272H133.778ZM133.778 8.01985H164.191C165.074 8.01985 165.761 8.7094 165.761 9.59596V14.2258H132.208V9.59596C132.208 8.7094 132.993 8.01985 133.778 8.01985ZM133.484 15.6049H164.485L149.671 27.1302C149.279 27.4258 148.788 27.4258 148.396 27.1302L133.484 15.6049ZM132.405 33.0407C132.307 32.8437 132.208 32.5481 132.208 32.3511V16.2945L142.706 24.4705L132.405 33.0407ZM165.662 33.0407L155.361 24.4705L165.859 16.2945V32.3511C165.859 32.6466 165.761 32.8437 165.662 33.0407ZM164.289 6.73926H133.778C132.208 6.73926 130.835 8.01985 130.835 9.69447V32.4496C130.835 34.0257 132.11 35.4048 133.778 35.4048H164.191C165.761 35.4048 167.134 34.1242 167.134 32.4496V9.59596C167.232 8.01985 165.859 6.73926 164.289 6.73926Z" fill="white"/>
</g>
<g opacity="0.99">
<path opacity="0.99" d="M151.615 12.5519C152.4 12.5519 153.087 11.8623 153.087 11.0743C153.087 10.2862 152.4 9.59668 151.615 9.59668C150.83 9.59668 150.144 10.2862 150.144 11.0743C150.144 11.9609 150.83 12.6504 151.615 12.5519ZM160.837 12.5519C161.622 12.5519 162.309 11.8623 162.309 11.0743C162.309 10.2862 161.622 9.59668 160.837 9.59668C160.052 9.59668 159.365 10.2862 159.365 11.0743C159.365 11.9609 160.052 12.6504 160.837 12.5519ZM156.226 12.5519C157.011 12.5519 157.698 11.8623 157.698 11.0743C157.698 10.2862 157.011 9.59668 156.226 9.59668C155.441 9.59668 154.755 10.2862 154.755 11.0743C154.755 11.9609 155.441 12.6504 156.226 12.5519Z" fill="white"/>
</g>
</svg>
