<svg width="51" height="51" viewBox="0 0 51 51" fill="none" xmlns="http://www.w3.org/2000/svg">
<path d="M42.4585 0.533217L9.22517 0.533203C4.61421 0.533203 0.788086 4.37499 0.788086 9.00482V32.942C0.788086 37.6704 4.61421 41.4137 9.22517 41.4137H10.3043V50.8281L22.5675 41.4137L42.4585 41.4137C47.1676 41.4137 50.8956 37.5719 50.8956 32.9421V9.00483C50.8956 4.375 47.1676 0.533217 42.4585 0.533217Z" fill="#EF3671"/>
<g opacity="0.99">
<path opacity="0.99" d="M10.7781 33.9272C10.68 33.9272 10.5819 33.9272 10.4838 33.8287L20.7849 25.2586L24.5129 28.1153C25.3959 28.8049 26.5731 28.8049 27.4561 28.1153L31.1841 25.2586L41.4852 33.8287C41.3871 33.8287 41.289 33.9272 41.1909 33.9272H10.7781ZM10.7781 8.01985H41.1909C42.0738 8.01985 42.7606 8.7094 42.7606 9.59596V14.2258H9.20844V9.59596C9.20844 8.7094 9.99329 8.01985 10.7781 8.01985ZM10.4838 15.6049H41.4852L26.6712 27.1302C26.2788 27.4258 25.7883 27.4258 25.3959 27.1302L10.4838 15.6049ZM9.40465 33.0407C9.30655 32.8437 9.20844 32.5481 9.20844 32.3511V16.2945L19.7057 24.4705L9.40465 33.0407ZM42.6625 33.0407L32.3614 24.4705L42.8587 16.2945V32.3511C42.8587 32.6466 42.7606 32.8437 42.6625 33.0407ZM41.289 6.73926H10.7781C9.20844 6.73926 7.83496 8.01985 7.83496 9.69447V32.4496C7.83496 34.0257 9.11033 35.4048 10.7781 35.4048H41.1909C42.7606 35.4048 44.134 34.1242 44.134 32.4496V9.59596C44.2322 8.01985 42.8587 6.73926 41.289 6.73926Z" fill="white"/>
</g>
<g opacity="0.99">
<path opacity="0.99" d="M28.6151 12.5519C29.4 12.5519 30.0867 11.8623 30.0867 11.0743C30.0867 10.2862 29.4 9.59668 28.6151 9.59668C27.8303 9.59668 27.1436 10.2862 27.1436 11.0743C27.1436 11.9609 27.8303 12.6504 28.6151 12.5519ZM37.8371 12.5519C38.6219 12.5519 39.3087 11.8623 39.3087 11.0743C39.3087 10.2862 38.6219 9.59668 37.8371 9.59668C37.0522 9.59668 36.3655 10.2862 36.3655 11.0743C36.3655 11.9609 37.0522 12.6504 37.8371 12.5519ZM33.2261 12.5519C34.0109 12.5519 34.6977 11.8623 34.6977 11.0743C34.6977 10.2862 34.0109 9.59668 33.2261 9.59668C32.4413 9.59668 31.7545 10.2862 31.7545 11.0743C31.7545 11.9609 32.4413 12.6504 33.2261 12.5519Z" fill="white"/>
</g>
</svg>
