<svg width="20" height="21" viewBox="0 0 20 21" fill="none" xmlns="http://www.w3.org/2000/svg">
<path d="M16.3025 3.64115C12.3969 -0.264497 6.04202 -0.264497 2.13638 3.64115C1.8757 3.90178 1.8757 4.32445 2.13638 4.58512C2.39701 4.84575 2.81967 4.84579 3.08035 4.58512C6.46543 1.20007 11.9735 1.20007 15.3585 4.58512C18.7436 7.9702 18.7436 13.4782 15.3585 16.8633C12.1321 20.0896 6.97731 20.2409 3.57013 17.3172L4.0935 16.7938C4.45672 16.4306 4.28948 15.8097 3.79427 15.6771L1.02595 14.9353C0.529719 14.8025 0.0757252 15.2576 0.208427 15.7528L0.950195 18.5211C1.08384 19.0199 1.70597 19.1814 2.06692 18.8204L2.62428 18.263C6.56031 21.7109 12.5601 21.5497 16.3025 17.8073C20.2082 13.9017 20.2082 7.54679 16.3025 3.64115ZM1.94051 17.0589L1.79717 16.5241L2.33201 16.6674L1.94051 17.0589Z" fill="#EF3671"/>
<path d="M12.4468 10.5247H9.5911V5.45953C9.5911 5.09084 9.29229 4.79199 8.9236 4.79199C8.55495 4.79199 8.2561 5.09087 8.2561 5.45949V11.1922C8.2561 11.5608 8.55498 11.8597 8.9236 11.8597H12.4468C12.8155 11.8597 13.1143 11.5608 13.1143 11.1922C13.1143 10.8236 12.8154 10.5247 12.4468 10.5247Z" fill="#EF3671"/>
</svg>
