<svg width="21" height="19" viewBox="0 0 21 19" fill="none" xmlns="http://www.w3.org/2000/svg">
<path fill-rule="evenodd" clip-rule="evenodd" d="M16.3249 13.8902C15.0739 13.8902 13.974 13.29 13.615 12.2612H13.5725C13.1084 13.1185 12.0201 13.6758 11.172 13.6758C9.43331 13.6758 7.96673 11.761 8.17652 9.79004C8.45584 7.1648 10.6653 5.4601 12.8593 5.1825C14.7785 4.93975 16.1452 5.1504 16.1452 5.1504L15.6504 10.0749C15.5048 11.1466 15.6318 11.661 16.48 11.661C17.7521 11.661 18.749 10.2036 18.5267 8.01728C18.2305 5.10234 16.4586 2.27308 12.1756 2.27308C9.78975 2.27308 7.54491 3.65786 6.46767 6.00202H7.9823C7.5535 6.81327 7.28954 7.70266 7.20588 8.61809H5.81955C5.78727 9.11794 5.79705 9.61964 5.84877 10.1178C5.87443 10.3702 5.91043 10.6137 5.95482 10.8495H7.35501C7.5739 11.7983 7.98896 12.6898 8.57303 13.4657H7.00212C8.29316 15.3697 10.4519 16.248 12.6208 16.248C13.6386 16.248 15.7049 15.6767 17.6617 14.7306L17.4537 17.4322C16.2088 18.1181 14.0728 18.6911 12.5462 18.6911C9.12551 18.6911 5.713 17.1984 4.19601 13.4657H0.875488L1.53988 10.8496H3.51445C3.48527 10.6389 3.46017 10.4242 3.44033 10.2037C3.39228 9.67664 3.37886 9.147 3.40016 8.6182H0.875488L1.53988 6.00212H3.84458C4.99693 2.32949 8.22919 0.0869141 12.25 0.0869141C16.957 0.0869141 20.2988 3.34482 20.7653 7.93165C21.1708 11.9182 18.6572 13.8902 16.3249 13.8902ZM13.4783 6.65949L13.4777 6.66552C13.4509 6.67397 13.3766 6.69377 13.1926 6.73975C11.3499 7.20055 10.7631 8.69967 10.6687 9.85425C10.6048 10.6359 11.1106 11.4038 11.7467 11.4038C12.1284 11.4038 12.684 11.2697 13.0851 10.6267L13.4777 6.66542C13.5026 6.65767 13.4869 6.65949 13.4783 6.65949Z" fill="white"/>
</svg>
