<svg width="29" height="20" viewBox="0 0 29 20" fill="none" xmlns="http://www.w3.org/2000/svg">
<path d="M1.12648 2.74745H4.57827C4.89891 2.74745 5.15882 3.00736 5.15882 3.328V3.82925H6.77758C7.09822 3.82925 7.35813 4.08917 7.35813 4.4098V4.57689C8.30176 4.49451 8.61213 4.31558 9.47872 3.81584C10.1452 3.43152 11.1525 2.85067 12.9666 2.03505C12.975 2.03122 12.9835 2.02768 12.9921 2.02431C13.5826 1.79198 15.1302 1.33485 16.7831 2.08394L19.1192 2.9204L21.0884 0.951279C21.3151 0.724574 21.6827 0.724574 21.9094 0.951279L28.3743 7.41614C28.5834 7.62531 28.6235 7.98798 28.3743 8.23721L17.3271 19.2844C17.1504 19.4612 16.7364 19.5147 16.5061 19.2844L10.6039 13.3822C10.4504 13.3955 10.2912 13.4026 10.1261 13.4026C8.6094 13.4026 7.26774 12.3622 6.50019 11.2281H1.12648C0.805843 11.2281 0.545931 10.9682 0.545931 10.6475V3.328C0.545931 3.00736 0.805843 2.74745 1.12648 2.74745ZM21.4989 2.18281L20.1757 3.506C20.5691 3.74925 21.0238 3.87941 21.4989 3.87941C21.9741 3.87941 22.4288 3.74931 22.8221 3.506L21.4989 2.18281ZM25.8195 9.1499L27.1427 7.82665L25.8195 6.50345C25.5763 6.89677 25.4461 7.35152 25.4461 7.82665C25.4461 8.30177 25.5762 8.75652 25.8195 9.1499ZM16.9166 18.0528L18.2395 16.7298C17.4318 16.2314 16.4015 16.2314 15.5937 16.7298L16.9166 18.0528ZM14.7572 15.8935C16.0401 14.9629 17.793 14.9629 19.0759 15.8935L24.9831 9.98624C24.5298 9.36273 24.285 8.61376 24.285 7.82665C24.285 7.03947 24.5297 6.29056 24.9831 5.66705L23.6585 4.34246C23.035 4.79581 22.286 5.04057 21.4989 5.04057C20.7117 5.04057 19.9628 4.79581 19.3393 4.34246L18.0836 5.59814C18.3545 5.63814 18.6188 5.72743 18.8651 5.86473C19.2813 6.0966 19.6078 6.44383 19.8111 6.86392C20.466 6.98519 21.0722 7.30223 21.5478 7.77776C22.8381 9.0681 22.8381 11.1676 21.5478 12.4579C20.9026 13.103 20.0552 13.4256 19.2077 13.4256C18.3603 13.4256 17.5128 13.1031 16.8676 12.4579C16.4479 12.0381 16.1538 11.5223 16.0066 10.9601L14.0464 11.6253C14.2671 12.6476 14.041 13.723 13.4314 14.5677L14.7572 15.8935ZM18.2869 10.1859C18.2817 10.1878 18.2766 10.1896 18.2715 10.1914L17.1106 10.5854C17.1983 10.981 17.3966 11.3448 17.6887 11.6369C18.5263 12.4744 19.8892 12.4745 20.7267 11.6369C21.5643 10.7993 21.5643 9.43646 20.7267 8.59884C20.5247 8.39669 20.2862 8.23872 20.0264 8.13161C19.9193 9.02345 19.2771 9.8184 18.2869 10.1859ZM12.5949 13.7311C12.819 13.3659 12.9458 12.9491 12.9658 12.5238C12.6877 12.7248 12.3479 12.9218 11.9419 13.0781L12.5949 13.7311ZM7.35819 10.4161C7.90844 11.3181 8.97561 12.2414 10.1261 12.2414C10.3414 12.2414 10.5432 12.2261 10.7318 12.1988C10.7325 12.1987 10.7333 12.1986 10.734 12.1984C11.9878 12.0163 12.6622 11.3037 12.8845 11.0216C12.8964 11.0042 12.9468 10.9382 12.9543 10.9272C13.0219 10.8063 13.1328 10.7091 13.2743 10.6611L17.8901 9.09451C18.6267 8.81805 19.0161 8.18728 18.8376 7.5582C18.8375 7.55779 18.8374 7.55739 18.8373 7.55698C18.8371 7.55651 18.837 7.55599 18.8369 7.55553C18.7539 7.26583 18.5634 7.02554 18.3 6.87884C18.0384 6.73306 17.736 6.69689 17.4476 6.77683L12.2463 8.42508C11.9405 8.52209 11.6143 8.35268 11.5174 8.04702C11.4206 7.74136 11.5898 7.41509 11.8955 7.3182L16.0322 6.00731L16.0683 5.9712C16.0687 5.97085 16.069 5.97045 16.0694 5.9701L18.2111 3.82844L16.3703 3.16928C16.3641 3.16702 16.3564 3.16417 16.3502 3.16167C16.3487 3.16104 16.3457 3.15987 16.3442 3.15924C16.3363 3.15604 16.3285 3.15268 16.3208 3.14913C15.0763 2.57717 13.8934 2.91953 13.4297 3.09985C11.6774 3.88829 10.7421 4.42757 10.0588 4.82159C9.10879 5.36946 8.65102 5.63343 7.35819 5.7402V10.4161ZM5.15882 10.0669H6.19703V4.99036H5.15882V10.0669ZM1.70704 10.0669H3.99772V3.90856H1.70704V10.0669Z" fill="#EF3671"/>
</svg>
