<svg width="28" height="12" viewBox="0 0 28 12" fill="none" xmlns="http://www.w3.org/2000/svg">
<path fill-rule="evenodd" clip-rule="evenodd" d="M3.0042 8.43913C3.02837 8.43913 3.05279 8.43913 3.07696 8.43913L3.15386 8.43815C3.19195 8.4362 3.23004 8.43425 3.26812 8.43034C3.96587 8.42937 4.63409 8.14812 5.12261 7.65007L12.056 9.95573C12.4598 11.3337 13.9044 12.1227 15.2823 11.7194C16.4947 11.3639 17.2762 10.1882 17.1346 8.93229L23.2012 5.1364C24.2718 6.09343 25.9153 6.00163 26.8726 4.93132C27.8296 3.86101 27.7381 2.21745 26.6675 1.26042C25.5972 0.303389 23.9534 0.395185 22.9964 1.4655C22.741 1.75065 22.5543 2.08659 22.4454 2.44694C22.3694 2.6989 22.3314 2.96257 22.3348 3.23015C22.3262 3.35124 22.3262 3.47233 22.3348 3.5944L16.2681 7.3903C15.2095 6.4196 13.5648 6.49089 12.5945 7.54948C12.5049 7.64812 12.4232 7.75261 12.3497 7.86198C12.282 7.96257 12.2215 8.06804 12.1688 8.17839L5.86797 6.06413C5.87212 5.98601 5.87212 5.90788 5.86797 5.82976C5.8775 4.39421 4.721 3.22233 3.28521 3.21257C1.84918 3.20378 0.677545 4.36003 0.668023 5.79558C0.66607 6.09733 0.716607 6.39421 0.814752 6.67448C0.920465 6.97526 1.08135 7.25651 1.29205 7.50261L1.28619 7.50944C1.44488 7.69011 2.05084 8.30827 3.0042 8.43913ZM25.8013 3.23015C25.8013 2.75163 25.4134 2.36296 24.9346 2.36296C24.6441 2.36296 24.387 2.50651 24.2298 2.72624C24.2122 2.75065 24.1961 2.77604 24.1812 2.80144C24.1595 2.83952 24.1404 2.87956 24.1246 2.92155L24.1104 2.96257L24.0955 3.01237L24.0814 3.07683C24.0726 3.12663 24.0679 3.17741 24.0679 3.23015C24.0679 3.70866 24.4561 4.09636 24.9346 4.09636C25.2244 4.09636 25.481 3.95476 25.6385 3.73601C25.6744 3.6862 25.7051 3.63249 25.7298 3.57585L25.7488 3.52897L25.7584 3.50065L25.7742 3.44597C25.7845 3.40593 25.7918 3.36491 25.7962 3.32292C25.7996 3.29265 25.8013 3.2614 25.8013 3.23015ZM15.4014 9.29655C15.4014 8.81804 15.0132 8.43034 14.5347 8.43034C14.056 8.43034 13.668 8.81804 13.668 9.29655C13.668 9.77507 14.056 10.1637 14.5347 10.1637C14.7635 10.1637 14.9715 10.0749 15.1265 9.93034C15.2957 9.77214 15.4014 9.54655 15.4014 9.29655ZM3.70806 5.08366C3.57916 5.00749 3.42877 4.96354 3.26812 4.96354C3.1629 4.96354 3.06182 4.9821 2.96832 5.01628C2.91851 5.03483 2.87066 5.05729 2.82549 5.08464C2.57159 5.23601 2.40142 5.51335 2.40142 5.82976C2.40142 6.30827 2.78936 6.69694 3.26812 6.69694C3.367 6.69694 3.46221 6.68034 3.55059 6.65007C3.62432 6.62468 3.69366 6.58952 3.75689 6.54558C3.77935 6.52995 3.80108 6.51335 3.82208 6.49577L3.867 6.45573C3.91119 6.41374 3.95098 6.36589 3.98565 6.31511C3.99883 6.29558 4.01129 6.27604 4.02276 6.25554C4.03277 6.23796 4.04229 6.22038 4.05108 6.20085L4.06695 6.16569C4.11041 6.06218 4.13458 5.9489 4.13458 5.82976C4.13458 5.51237 3.96343 5.23405 3.70806 5.08366Z" fill="white"/>
</svg>
