<svg width="17" height="21" viewBox="0 0 17 21" fill="none" xmlns="http://www.w3.org/2000/svg">
<path d="M1.46166 7.77127C1.29629 6.85136 2.00334 6.00586 2.93799 6.00586H13.8244C14.7502 6.00586 15.455 6.83633 15.3044 7.74984L13.4296 19.1231C13.3101 19.8476 12.6838 20.3791 11.9495 20.3791H4.98259C4.25654 20.3791 3.63472 19.8591 3.50625 19.1445L1.46166 7.77127Z" stroke="#EF3671"/>
<rect x="1.00678" y="3.52924" width="14.7139" height="0.920792" rx="0.460396" stroke="#EF3671" stroke-width="0.920792"/>
<rect x="7.34424" y="1.37988" width="2.04067" height="2.67879" rx="1.02034" stroke="#EF3671"/>
<line x1="0.5" y1="-0.5" x2="8.67764" y2="-0.5" transform="matrix(0.0691113 0.997609 -0.997387 0.0722427 4.96533 8.63086)" stroke="#EF3671" stroke-linecap="round"/>
<line x1="8.21436" y1="9.09912" x2="8.21436" y2="17.2889" stroke="#EF3671" stroke-linecap="round"/>
<line x1="0.5" y1="-0.5" x2="8.67764" y2="-0.5" transform="matrix(-0.0691113 0.997609 0.997387 0.0722427 12.0176 8.63086)" stroke="#EF3671" stroke-linecap="round"/>
</svg>
