<svg width="20" height="24" viewBox="0 0 20 24" fill="none" xmlns="http://www.w3.org/2000/svg">
<path fill-rule="evenodd" clip-rule="evenodd" d="M10.2241 3.54688C9.49775 3.54688 8.89544 3.7702 8.42509 4.22476C7.97618 4.65562 7.68969 5.25906 7.55885 6.0238H6.81104V6.85508H7.47538L7.46974 7.08856V7.2803L7.47313 7.35475H6.81104V8.18603H7.57126C7.71789 8.93045 8.00889 9.51134 8.44991 9.91964C8.91461 10.3426 9.51918 10.5502 10.2512 10.5502C10.7779 10.5502 11.2697 10.4486 11.7243 10.2467L11.7931 10.2163V9.24402L11.6318 9.31282C11.184 9.5057 10.7407 9.60157 10.3008 9.60157C9.81921 9.60157 9.44699 9.46622 9.17178 9.20567C8.92138 8.96204 8.73978 8.62479 8.6315 8.18603H10.5704V7.35475H8.52548L8.5221 7.26902V6.99381L8.52661 6.85508H10.8501V6.0238H8.62022C8.73415 5.51961 8.91912 5.1474 9.16614 4.897C9.43233 4.62855 9.78199 4.49095 10.2241 4.49095C10.4655 4.49095 10.7317 4.54283 11.0216 4.64998C11.1693 4.70412 11.3239 4.77293 11.484 4.85639L11.5867 4.90941L12.0333 4.04655L11.9386 3.99128C11.4321 3.69463 10.8603 3.54688 10.2241 3.54688ZM10.3708 4.38041C10.7193 4.40748 11.1039 4.53155 11.5269 4.74924L11.537 4.75375C11.1107 4.53268 10.7215 4.40748 10.3708 4.38041ZM8.50179 6.0238L8.47811 6.13884C8.486 6.09937 8.4939 6.06102 8.50179 6.0238ZM8.48713 8.06985L8.51307 8.18603C8.50405 8.14768 8.49503 8.10933 8.48713 8.06985Z" fill="#EF3671"/>
<path fill-rule="evenodd" clip-rule="evenodd" d="M9.95647 12.5043C12.9598 12.5043 15.3945 10.0697 15.3945 7.06634C15.3945 4.06302 12.9598 1.62835 9.95647 1.62835C6.95316 1.62835 4.51849 4.06302 4.51849 7.06634C4.51849 10.0697 6.95316 12.5043 9.95647 12.5043ZM9.95647 13.9647C13.7663 13.9647 16.8548 10.8762 16.8548 7.06634C16.8548 3.25647 13.7663 0.167969 9.95647 0.167969C6.14661 0.167969 3.05811 3.25647 3.05811 7.06634C3.05811 10.8762 6.14661 13.9647 9.95647 13.9647Z" fill="#EF3671"/>
<path fill-rule="evenodd" clip-rule="evenodd" d="M0.574951 21.5889V18.9482H2.0354V21.5889H18.2727V18.9482H19.7332V21.5889H19.7549V23.0488L19.7332 23.0498H18.2727H2.0354H0.574951V21.5889Z" fill="#EF3671"/>
<path fill-rule="evenodd" clip-rule="evenodd" d="M13.7581 15.9901L10.3365 19.4117C10.1265 19.6217 9.7861 19.6217 9.57613 19.4117L6.15457 15.9901C5.9446 15.7802 5.9446 15.4397 6.15457 15.2298C6.36453 15.0198 6.70495 15.0198 6.91491 15.2298L9.41866 17.7335L9.41866 13.5107L10.494 13.5107L10.494 17.7335L12.9977 15.2298C13.2077 15.0198 13.5481 15.0198 13.7581 15.2298C13.968 15.4397 13.968 15.7802 13.7581 15.9901Z" fill="#EF3671"/>
</svg>
