<svg width="23" height="25" viewBox="0 0 23 25" fill="none" xmlns="http://www.w3.org/2000/svg">
<path d="M9.0176 17.352C8.71753 17.1269 8.29742 17.1869 8.07237 17.487C6.94709 18.9774 5.23166 19.8326 3.3662 19.8326H1.50573C1.13064 19.8326 0.830566 20.1327 0.830566 20.5078C0.830566 20.8829 1.13064 21.1829 1.50573 21.1829H3.3712C4.52648 21.1829 5.63176 20.9179 6.65201 20.3977C7.62725 19.9026 8.49247 19.1774 9.15263 18.2972C9.37269 18.0021 9.31767 17.577 9.0176 17.352Z" fill="#EF3671"/>
<path d="M10.9231 7.85901C11.0481 7.95403 11.1932 7.99904 11.3382 7.99904C11.5383 7.99904 11.7383 7.90902 11.8734 7.73898C12.9986 6.28862 14.6941 5.45841 16.5245 5.45841H20.4505L18.355 7.55393C18.0899 7.819 18.0899 8.2441 18.355 8.50917C18.485 8.6392 18.66 8.70922 18.8301 8.70922C19.0001 8.70922 19.1752 8.6442 19.3052 8.50917L22.556 5.25836C22.8211 4.99329 22.8211 4.56819 22.556 4.30312L19.3052 1.05232C19.0401 0.787249 18.615 0.787249 18.35 1.05232C18.0849 1.31738 18.0849 1.74249 18.35 2.00755L20.4455 4.10307H16.5195C14.2689 4.10307 12.1834 5.12333 10.7981 6.90877C10.578 7.20884 10.628 7.62895 10.9231 7.85901Z" fill="#EF3671"/>
<path d="M19.3102 16.7815C19.0451 16.5165 18.62 16.5165 18.3549 16.7815C18.0899 17.0466 18.0899 17.4717 18.3549 17.7368L20.4505 19.8323H16.5245C13.2787 19.8323 10.638 17.1916 10.638 13.9458V11.3452C10.638 7.3542 7.39222 4.1084 3.40123 4.1084H1.53576C1.16067 4.1084 0.860596 4.40847 0.860596 4.78357C0.860596 5.15866 1.16067 5.45873 1.53576 5.45873H3.40123C6.64703 5.45873 9.28769 8.09939 9.28769 11.3452V13.9458C9.28769 17.9368 12.5335 21.1826 16.5245 21.1826H20.4505L18.3549 23.2782C18.0899 23.5432 18.0899 23.9683 18.3549 24.2334C18.485 24.3634 18.66 24.4334 18.8301 24.4334C19.0001 24.4334 19.1751 24.3684 19.3052 24.2334L22.556 20.9826C22.8211 20.7175 22.8211 20.2924 22.556 20.0274L19.3102 16.7815Z" fill="#EF3671"/>
</svg>
