<svg width="14" height="19" viewBox="0 0 14 19" fill="none" xmlns="http://www.w3.org/2000/svg">
<path fill-rule="evenodd" clip-rule="evenodd" d="M8.83987 0.808594C6.95855 0.808594 5.39857 1.38701 4.18039 2.5643C3.01771 3.68024 2.2757 5.24313 1.93682 7.22378H0V9.37678H1.72065L1.70604 9.98149V10.4781L1.71481 10.6709H0V12.8239H1.96896C2.34873 14.752 3.10243 16.2565 4.24466 17.314C5.44823 18.4095 7.01405 18.947 8.90998 18.947C10.2742 18.947 11.5479 18.6841 12.7252 18.1611L12.9034 18.0823V15.5641L12.4857 15.7423C11.3259 16.2418 10.1778 16.4902 9.03852 16.4902C7.79112 16.4902 6.82709 16.1396 6.11429 15.4648C5.46576 14.8338 4.99543 13.9603 4.71498 12.8239H9.73671V10.6709H4.44038L4.43162 10.4489V9.7361L4.4433 9.37678H10.4612V7.22378H4.68577C4.98082 5.91795 5.45992 4.95392 6.09968 4.30539C6.78911 3.61012 7.69472 3.25373 8.83987 3.25373C9.46503 3.25373 10.1545 3.38811 10.9052 3.66563C11.2879 3.80585 11.6881 3.98405 12.103 4.20023L12.3688 4.33753L13.5256 2.10273L13.2802 1.95959C11.9686 1.19128 10.4875 0.808594 8.83987 0.808594ZM9.21964 2.96744C10.1223 3.03755 11.1185 3.35889 12.214 3.9227L12.2403 3.93439C11.136 3.36181 10.1282 3.03755 9.21964 2.96744ZM4.37903 7.22378L4.31769 7.52175C4.33814 7.41951 4.35859 7.32018 4.37903 7.22378ZM4.34106 12.523L4.40825 12.8239C4.38488 12.7246 4.36151 12.6253 4.34106 12.523Z" fill="white"/>
</svg>
