<svg width="21" height="21" viewBox="0 0 21 21" fill="none" xmlns="http://www.w3.org/2000/svg">
<path d="M18.9664 5.34043L17.6224 6.66297L14.2624 3.35254L15.6064 2.03C15.8802 1.76059 16.3572 1.76059 16.631 2.03L18.9664 4.3322C19.2485 4.60977 19.2485 5.06286 18.9664 5.34043ZM7.73725 16.4024L4.3772 13.092L13.0635 4.53221L16.4236 7.84265L7.73725 16.4024ZM3.60148 14.688L6.1153 17.1657L2.61421 18.1372L3.60148 14.688ZM20.1653 3.15253L17.8298 0.850325C17.3735 0.401314 15.7267 -0.447724 14.4117 0.850325L2.57687 12.5042C2.47317 12.6062 2.3985 12.7287 2.36117 12.8675L0.577436 19.1169C0.494472 19.4067 0.581585 19.7169 0.793143 19.9333C1.00885 20.1496 1.44026 20.1864 1.62279 20.1455L7.96955 18.3862C8.11058 18.3495 8.23503 18.276 8.33874 18.174L20.1653 6.52011C21.1069 5.59351 21.1069 4.0832 20.1653 3.15253Z" fill="white"/>
</svg>
