<svg width="23" height="16" viewBox="0 0 23 16" fill="none" xmlns="http://www.w3.org/2000/svg">
<path fill-rule="evenodd" clip-rule="evenodd" d="M0.841797 14.3086C3.69629 14.3086 5.64478 13.5996 7.09668 12.4365C7.56006 12.0654 7.96289 11.6533 8.32153 11.2236L7.10718 9.35352C6.71704 9.89746 6.29468 10.3799 5.77954 10.793C4.77393 11.5986 3.31958 12.2031 0.841797 12.2031V14.3086ZM10.136 4.77051L11.3013 6.67578C11.7085 6.13184 12.1567 5.64746 12.7053 5.2334C13.7878 4.41602 15.365 3.80371 18.0088 3.80371V1.69824C15.0168 1.69824 12.9634 2.39941 11.4365 3.55176C10.9426 3.9248 10.5149 4.33789 10.136 4.77051Z" fill="#EF3671"/>
<path fill-rule="evenodd" clip-rule="evenodd" d="M7.09663 3.57063C5.6448 2.407 3.69625 1.69793 0.841797 1.69793V3.80382C3.31948 3.80382 4.77396 4.40785 5.77958 5.21385C6.8221 6.04943 7.48351 7.17028 8.27029 8.50359L8.29083 8.5384C9.05702 9.83674 9.94373 11.3277 11.4366 12.4547C12.9633 13.6071 15.0168 14.3086 18.0087 14.3086V12.2027C15.3651 12.2027 13.7879 11.5911 12.7054 10.7739C11.5891 9.93121 10.8881 8.79597 10.1045 7.46812C10.0738 7.41607 10.0429 7.36366 10.0118 7.31093C9.28051 6.06949 8.44522 4.65153 7.09663 3.57063Z" fill="#EF3671"/>
<path d="M16.9143 5.4944V0.00585938L22.6839 2.67971L16.9143 5.4944Z" fill="#EF3671"/>
<path d="M16.9143 16.0003V10.5117L22.6839 13.1856L16.9143 16.0003Z" fill="#EF3671"/>
</svg>
