<svg width="25" height="20" viewBox="0 0 25 20" fill="none" xmlns="http://www.w3.org/2000/svg">
<path d="M0.667969 4.96357H1.75089V6.02301H0.667969V4.96357Z" fill="white"/>
<path d="M1.88717 4.10927C1.17542 4.36641 0.667969 5.03621 0.667969 5.82188V18.1746C0.667969 19.1827 1.50339 20 2.53378 20H22.8022C23.8325 20 24.668 19.1827 24.668 18.1746V5.82188C24.668 4.81383 23.8325 3.99652 22.8022 3.99652H11.0176L11.3315 5.18283H22.8022C23.1629 5.18283 23.4551 5.46893 23.4551 5.82188V18.1746C23.4551 18.5276 23.1629 18.8137 22.8022 18.8137H2.53378C2.17301 18.8137 1.88079 18.5276 1.88079 18.1746V5.82188C1.88079 5.79157 1.88307 5.76171 1.88717 5.7323V4.10927Z" fill="white"/>
<path d="M2.53378 1.1863H9.78817C10.0868 1.1863 10.3475 1.38506 10.4211 1.66804L11.3205 5.1347H12.5716L11.5966 1.37614C11.3866 0.566858 10.6418 0 9.78817 0H2.53378C1.50339 0 0.667969 0.817309 0.667969 1.82535V5.1347H1.88079V1.82535C1.88079 1.4724 2.17301 1.1863 2.53378 1.1863Z" fill="white"/>
</svg>
