<svg width="16" height="15" viewBox="0 0 16 15" fill="none" xmlns="http://www.w3.org/2000/svg">
<path fill-rule="evenodd" clip-rule="evenodd" d="M1.42442 0.75C1.1588 0.75 0.922468 0.908203 0.813093 1.14746C0.704206 1.38574 0.737898 1.66797 0.901472 1.87305L5.90245 8.14062V13.8945C5.90245 14.1289 6.01964 14.3506 6.21837 14.4775C6.32725 14.5479 6.45177 14.583 6.57677 14.583C6.68077 14.583 6.78428 14.5586 6.87901 14.5107L9.71983 13.0557C9.9503 12.9375 10.0914 12.6982 10.0914 12.4414L10.0973 8.14062L15.0982 1.87305C15.2623 1.66797 15.296 1.38574 15.1871 1.14746C15.1339 1.03125 15.0509 0.93457 14.9493 0.865234C14.8414 0.791992 14.7125 0.75 14.5758 0.75H1.42442ZM6.2711 14.1982C6.29552 14.2246 6.32188 14.248 6.35313 14.2676C6.37901 14.2842 6.40587 14.2979 6.4337 14.3076C6.4293 14.3057 6.42491 14.3047 6.421 14.3027C6.39757 14.293 6.3751 14.2812 6.35313 14.2676C6.32286 14.248 6.29552 14.2246 6.2711 14.1982ZM1.09678 1.71777C1.05577 1.66602 1.02794 1.60742 1.0128 1.5459C1.02794 1.60742 1.05626 1.66602 1.09678 1.71777ZM8.9005 7.46094C8.80186 7.58398 8.74913 7.7373 8.74864 7.89453L8.74376 12.0156L7.25108 12.7793V7.89551C7.25108 7.8252 7.24083 7.75488 7.22032 7.68848C7.19493 7.60645 7.1544 7.5293 7.09971 7.46094L2.84337 2.12695H13.1568L8.9005 7.46094Z" fill="#67D0F1"/>
</svg>
