<svg width="28" height="22" viewBox="0 0 28 22" fill="none" xmlns="http://www.w3.org/2000/svg">
<path fill-rule="evenodd" clip-rule="evenodd" d="M2.56152 0.577148C1.45703 0.577148 0.561523 1.47266 0.561523 2.57715V19.2256C0.561523 20.3301 1.45703 21.2256 2.56152 21.2256H19.2407C19.8359 21.2256 20.3999 20.9609 20.7798 20.5029L26.6187 13.4658C27.4873 12.4189 27.543 10.918 26.7539 9.80957L20.7783 1.41699C20.5278 1.06543 20.1738 0.808594 19.7739 0.676758C19.5747 0.611328 19.3638 0.577148 19.1489 0.577148H2.56152ZM20.5137 13.3594C21.8706 13.3594 22.9707 12.2588 22.9707 10.9014C22.9707 9.54492 21.8706 8.44434 20.5137 8.44434C19.1562 8.44434 18.0562 9.54492 18.0562 10.9014C18.0562 12.2588 19.1562 13.3594 20.5137 13.3594Z" fill="#EF3671"/>
</svg>
