<svg width="43" height="20" viewBox="0 0 43 20" fill="none" xmlns="http://www.w3.org/2000/svg">
<rect x="4.6167" y="13.4092" width="8.21678" height="1.96689" rx="0.983446" fill="#EF3671"/>
<rect x="0.615234" y="9.01221" width="8.33899" height="1.96689" rx="0.983446" fill="#EF3671"/>
<rect x="4.2063" y="4.61523" width="10.1802" height="1.96689" rx="0.983446" fill="#EF3671"/>
<path d="M39.7797 0.626953H21.0595C19.453 0.626953 18.146 1.88842 18.146 3.43893L16.8711 16.5525C16.8711 18.103 18.1781 19.3644 19.7846 19.3644H38.5048C40.1113 19.3644 41.4182 18.103 41.4182 16.5525L42.6931 3.43893C42.6931 1.88842 41.3862 0.626953 39.7797 0.626953ZM38.5048 16.8819H19.7846C19.5485 16.8819 19.3414 16.728 19.3414 16.5525L20.6163 5.17299L28.4454 12.3567C28.619 12.5041 28.8398 12.5852 29.067 12.5852L30.4969 12.5852C30.7241 12.5852 30.945 12.5041 31.1186 12.3567L40.2231 5.17273L38.9482 16.5526C38.948 16.728 38.7409 16.8819 38.5048 16.8819ZM29.7821 10.1202L22.1847 3.10947H38.6544L29.7821 10.1202Z" fill="#EF3671"/>
</svg>
