<svg width="28" height="33" viewBox="0 0 28 33" fill="none" xmlns="http://www.w3.org/2000/svg">
<path d="M21.3059 18.3164C21.5757 18.3164 21.83 18.2072 22.0208 18.0098L27.417 12.4327C27.7994 12.0384 27.7994 11.3499 27.417 10.9554C27.0231 10.5479 26.3814 10.5479 25.9871 10.9554L22.3169 14.7492L22.3169 9.24097C22.3169 4.59049 18.6561 0.807066 14.1561 0.807066C9.90846 0.807066 6.54372 5.20742 6.26416 8.2501C6.26306 8.67285 6.61078 9.18762 7.41841 9.06242C7.94073 8.90992 8.17263 7.84823 8.18746 7.78263C8.82701 4.98636 11.2571 2.8969 14.1562 2.8969C17.5411 2.8969 20.2948 5.74275 20.2948 9.24097L20.2948 14.7485L16.6238 10.9554C16.23 10.5479 15.5886 10.5479 15.1944 10.9554C14.8117 11.3506 14.8127 12.0384 15.1944 12.4327L20.591 18.0098C20.7818 18.2072 21.0357 18.3164 21.3059 18.3164Z" fill="#535678"/>
<path d="M7.16835 14.7705C6.8985 14.7705 6.6442 14.8797 6.45343 15.0771L1.05719 20.6542C0.674865 21.0485 0.674865 21.7371 1.05719 22.1315C1.45112 22.539 2.09281 22.539 2.4871 22.1315L6.15733 18.3377L6.15733 23.8459C6.15733 28.4964 9.81817 32.2798 14.3181 32.2798C18.5658 32.2798 21.9305 27.8795 22.2101 24.8368C22.2112 24.4141 21.8635 23.8993 21.0558 24.0245C20.5335 24.177 20.3016 25.2387 20.2868 25.3043C19.6472 28.1005 17.2171 30.19 14.3181 30.19C10.9331 30.19 8.17944 27.3442 8.17944 23.8459L8.17944 18.3384L11.8504 22.1315C12.2443 22.539 12.8857 22.539 13.2799 22.1315C13.6626 21.7363 13.6615 21.0485 13.2799 20.6542L7.88328 15.0771C7.69245 14.8797 7.43852 14.7705 7.16835 14.7705Z" fill="#535678"/>
</svg>
