<svg width="19" height="19" viewBox="0 0 19 19" fill="none" xmlns="http://www.w3.org/2000/svg">
<path fill-rule="evenodd" clip-rule="evenodd" d="M13.1992 11.6233H12.3855L12.1027 11.3424C13.1018 10.1768 13.7095 8.66582 13.7095 7.01025C13.7095 3.33007 10.7274 0.346966 7.04837 0.346966C3.36936 0.346966 0.387207 3.33007 0.387207 7.01025C0.387207 10.6904 3.36936 13.6735 7.04837 13.6735C8.70341 13.6735 10.2129 13.0667 11.3781 12.0682L11.661 12.3491V13.161L16.7829 18.2773L18.3109 16.7489L13.1992 11.6233ZM7.04834 11.6233C4.5007 11.6233 2.43677 9.55875 2.43677 7.0103C2.43677 4.46288 4.5007 2.39726 7.04834 2.39726C9.59495 2.39726 11.6599 4.46288 11.6599 7.0103C11.6599 9.55875 9.59495 11.6233 7.04834 11.6233Z" fill="#535678"/>
</svg>
