<svg width="29" height="23" viewBox="0 0 29 23" fill="none" xmlns="http://www.w3.org/2000/svg">
<path d="M19.1189 4.35037H19.2689V4.20037V1.22798C19.2689 1.22797 19.2689 1.22796 19.2689 1.22794C19.2689 1.00502 19.3575 0.791321 19.5151 0.633674C19.8434 0.305262 20.3757 0.305168 20.7042 0.633474L27.6398 7.56913C27.968 7.89743 27.968 8.42966 27.6398 8.75803L20.7042 15.6937C20.7042 15.6937 20.7041 15.6937 20.7041 15.6937C20.5465 15.8513 20.3327 15.9398 20.1099 15.9399C19.6455 15.94 19.269 15.5636 19.2689 15.0993C19.2689 15.0992 19.2689 15.0992 19.2689 15.0992V12.1268V11.9768H19.1189H8.22C7.75561 11.9768 7.37917 11.6004 7.37917 11.136V9.56456V9.20243L7.1231 9.4585L2.57924 14.0024L2.47317 14.1084L2.57924 14.2145L7.1231 18.7584L7.37917 19.0144V18.6523V17.0809C7.37917 16.6165 7.75561 16.24 8.22 16.24H16.1465C16.6108 16.24 16.9873 16.6165 16.9873 17.0809C16.9873 17.5452 16.6108 17.9217 16.1465 17.9217H9.21077H9.06077V18.0717V21.0441V21.0442C9.06087 21.3842 8.85612 21.6908 8.54199 21.8211L8.54173 21.8212C8.44 21.8636 8.33072 21.8853 8.22047 21.8849H8.22003C7.99706 21.8849 7.78325 21.7963 7.62559 21.6386L7.62557 21.6385L0.689892 14.7029C0.361642 14.3746 0.361631 13.8424 0.6899 13.514L7.62549 6.57833C7.6255 6.57833 7.62551 6.57832 7.62551 6.57831C7.78316 6.42072 7.99692 6.3322 8.2198 6.33215C8.68412 6.33205 9.06065 6.70837 9.06077 7.17274C9.06077 7.17275 9.06077 7.17276 9.06077 7.17278V10.1452V10.2952H9.21077H20.1097C20.5741 10.2952 20.9505 10.6716 20.9505 11.136V12.7074V13.0696L21.2066 12.8135L25.7505 8.26964L25.8565 8.16357L25.7505 8.05751L21.2066 3.51364L20.9505 3.25757V3.6197V5.1912C20.9505 5.65559 20.5741 6.03203 20.1097 6.03203H12.1832C11.7188 6.03203 11.3424 5.65559 11.3424 5.1912C11.3424 4.72682 11.7188 4.35037 12.1832 4.35037H19.1189Z" fill="#EF3671" stroke="#F8F9FC" stroke-width="0.3"/>
</svg>
