<svg width="16" height="22" viewBox="0 0 16 22" fill="none" xmlns="http://www.w3.org/2000/svg">
<path d="M14.9964 8.77169C14.997 8.77113 14.9976 8.77048 14.9982 8.76992C15.2499 8.51717 15.2491 8.10809 14.9964 7.85631L8.21919 1.07976C7.96693 0.827579 7.55801 0.827579 7.30575 1.07976L0.529198 7.85631C0.528633 7.85688 0.527987 7.85752 0.527422 7.85809C0.275643 8.11084 0.276451 8.51991 0.529198 8.77169L2.35609 10.5915C2.60835 10.8437 3.01727 10.8437 3.26953 10.5915L5.82318 8.04171V20.9165C5.82318 21.2733 6.11242 21.5625 6.46918 21.5625H9.05318C9.40993 21.5625 9.69918 21.2733 9.69918 20.9165V8.04171L12.2561 10.5915C12.5083 10.8437 12.9172 10.8437 13.1695 10.5915L14.9964 8.77169ZM12.7095 9.2239L9.50926 6.02748C9.38821 5.90684 9.22429 5.83901 9.05334 5.83901C8.69659 5.83893 8.40726 6.1281 8.40718 6.48485V20.2705H7.11518V6.48485C7.11445 6.31479 7.0467 6.15192 6.92671 6.03152C6.67485 5.77885 6.26577 5.77821 6.0131 6.03007L2.81281 9.2239L1.90001 8.3111L7.76118 2.44993L13.6223 8.31368L12.7095 9.2239Z" fill="white"/>
</svg>
