<svg width="20" height="25" viewBox="0 0 20 25" fill="none" xmlns="http://www.w3.org/2000/svg">
<path fill-rule="evenodd" clip-rule="evenodd" d="M10.447 9.57324C9.72065 9.57324 9.11834 9.79657 8.64799 10.2511C8.19908 10.682 7.91259 11.2854 7.78175 12.0502L7.03394 12.0502L7.03393 12.8814L7.69828 12.8814L7.69264 13.1149L7.69264 13.3067L7.69603 13.3811L7.03393 13.3811L7.03393 14.2124L7.79416 14.2124C7.94079 14.9568 8.23179 15.5377 8.67281 15.946C9.13751 16.369 9.74208 16.5765 10.4741 16.5765C11.0008 16.5765 11.4926 16.475 11.9472 16.2731L12.016 16.2427L12.016 15.2704L11.8547 15.3392C11.4069 15.5321 10.9636 15.6279 10.5237 15.6279C10.0421 15.6279 9.66989 15.4926 9.39468 15.232C9.14428 14.9884 8.96268 14.6512 8.8544 14.2124L10.7933 14.2124L10.7933 13.3811L8.74838 13.3811L8.745 13.2954L8.745 13.0202L8.74951 12.8814L11.073 12.8814L11.073 12.0502L8.84312 12.0502C8.95705 11.546 9.14202 11.1738 9.38904 10.9234C9.65523 10.6549 10.0049 10.5173 10.447 10.5173C10.6884 10.5173 10.9546 10.5692 11.2445 10.6764C11.3922 10.7305 11.5468 10.7993 11.7069 10.8828L11.8096 10.9358L12.2562 10.0729L12.1615 10.0176C11.655 9.721 11.0832 9.57324 10.447 9.57324ZM10.5937 10.4068C10.9422 10.4338 11.3268 10.5579 11.7498 10.7756L11.7599 10.7801C11.3336 10.559 10.9444 10.4338 10.5937 10.4068ZM8.72469 12.0502L8.70101 12.1652C8.7089 12.1257 8.7168 12.0874 8.72469 12.0502ZM8.71003 14.0962L8.73597 14.2124C8.72695 14.174 8.71792 14.1357 8.71003 14.0962Z" fill="#EF3671"/>
<path fill-rule="evenodd" clip-rule="evenodd" d="M9.95637 7.61873C6.95305 7.61873 4.51839 10.0534 4.51839 13.0567C4.51839 16.06 6.95305 18.4947 9.95637 18.4947C12.9597 18.4947 15.3944 16.06 15.3944 13.0567C15.3944 10.0534 12.9597 7.61873 9.95637 7.61873ZM9.95637 6.15834C6.1465 6.15834 3.058 9.24685 3.058 13.0567C3.058 16.8666 6.14651 19.9551 9.95637 19.9551C13.7662 19.9551 16.8547 16.8666 16.8547 13.0567C16.8547 9.24685 13.7662 6.15834 9.95637 6.15834Z" fill="#EF3671"/>
<path fill-rule="evenodd" clip-rule="evenodd" d="M0.574951 22.9736V20.333H2.0354V22.9736H18.2727V20.333H19.7332V22.9736H19.7549V24.4336L19.7332 24.4346H18.2727H2.0354H0.574951V22.9736Z" fill="#EF3671"/>
<path fill-rule="evenodd" clip-rule="evenodd" d="M6.15479 4.13292L9.57636 0.711356C9.78632 0.501391 10.1267 0.501391 10.3367 0.711355L13.7583 4.13292C13.9682 4.34289 13.9682 4.68331 13.7583 4.89327C13.5483 5.10324 13.2079 5.10324 12.9979 4.89327L10.4942 2.38953L10.4942 6.6123L9.41888 6.6123L9.41888 2.38953L6.91514 4.89327C6.70517 5.10324 6.36475 5.10324 6.15479 4.89327C5.94482 4.68331 5.94482 4.34289 6.15479 4.13292Z" fill="#EF3671"/>
</svg>
